<?xml version="1.0" encoding="UTF-8" standalone="no"?>
<!DOCTYPE svg PUBLIC "-//W3C//DTD SVG 1.1//EN"
 "http://www.w3.org/Graphics/SVG/1.1/DTD/svg11.dtd">
<!-- Generated by graphviz version 2.38.0 (20140413.2041)
 -->
<!-- Title: tree Pages: 1 -->
<svg width="1527pt" height="770pt"
 viewBox="0.00 0.00 1526.50 770.00" xmlns="http://www.w3.org/2000/svg" xmlns:xlink="http://www.w3.org/1999/xlink">
<g id="graph0" class="graph" transform="scale(1 1) rotate(0) translate(4 766)">
<title>tree</title>
<polygon fill="white" stroke="none" points="-4,4 -4,-766 1522.5,-766 1522.5,4 -4,4"/>
<!-- &lt;__main__.BinaryTreeNode object at 0x0000019735283070&gt; -->
<g id="node1" class="node"><title>&lt;__main__.BinaryTreeNode object at 0x0000019735283070&gt;</title>
<polygon fill="none" stroke="black" points="618.5,-762 506.5,-762 506.5,-650 618.5,-650 618.5,-762"/>
<text text-anchor="middle" x="562.5" y="-724.8" font-family="Times New Roman,serif" font-size="14.00">root&#45;1</text>
<text text-anchor="middle" x="562.5" y="-709.8" font-family="Times New Roman,serif" font-size="14.00">3070</text>
<text text-anchor="middle" x="562.5" y="-694.8" font-family="Times New Roman,serif" font-size="14.00">rmse:5605.0</text>
<text text-anchor="middle" x="562.5" y="-679.8" font-family="Times New Roman,serif" font-size="14.00">xrange:(&#45;5.0, 5.0)</text>
</g>
<!-- &lt;__main__.BinaryTreeNode object at 0x0000019763CC65E0&gt; -->
<g id="node2" class="node"><title>&lt;__main__.BinaryTreeNode object at 0x0000019763CC65E0&gt;</title>
<polygon fill="none" stroke="black" points="478,-614 355,-614 355,-491 478,-491 478,-614"/>
<text text-anchor="middle" x="416.5" y="-571.3" font-family="Times New Roman,serif" font-size="14.00">L&#45;2</text>
<text text-anchor="middle" x="416.5" y="-556.3" font-family="Times New Roman,serif" font-size="14.00">65E0</text>
<text text-anchor="middle" x="416.5" y="-541.3" font-family="Times New Roman,serif" font-size="14.00">rmse:503.0</text>
<text text-anchor="middle" x="416.5" y="-526.3" font-family="Times New Roman,serif" font-size="14.00">xrange:(&#45;5.0, &#45;1.07)</text>
</g>
<!-- &lt;__main__.BinaryTreeNode object at 0x0000019735283070&gt;&#45;&gt;&lt;__main__.BinaryTreeNode object at 0x0000019763CC65E0&gt; -->
<g id="edge1" class="edge"><title>&lt;__main__.BinaryTreeNode object at 0x0000019735283070&gt;&#45;&gt;&lt;__main__.BinaryTreeNode object at 0x0000019763CC65E0&gt;</title>
<path fill="none" stroke="black" d="M509.378,-649.876C500.477,-640.64 491.149,-630.961 481.981,-621.447"/>
<polygon fill="black" stroke="black" points="484.47,-618.987 475.011,-614.215 479.43,-623.844 484.47,-618.987"/>
</g>
<!-- &lt;__main__.BinaryTreeNode object at 0x0000019735277E80&gt; -->
<g id="node3" class="node"><title>&lt;__main__.BinaryTreeNode object at 0x0000019735277E80&gt;</title>
<polygon fill="none" stroke="black" points="768,-612 649,-612 649,-493 768,-493 768,-612"/>
<text text-anchor="middle" x="708.5" y="-571.3" font-family="Times New Roman,serif" font-size="14.00">R&#45;3</text>
<text text-anchor="middle" x="708.5" y="-556.3" font-family="Times New Roman,serif" font-size="14.00">7E80</text>
<text text-anchor="middle" x="708.5" y="-541.3" font-family="Times New Roman,serif" font-size="14.00">rmse:3311.0</text>
<text text-anchor="middle" x="708.5" y="-526.3" font-family="Times New Roman,serif" font-size="14.00">xrange:(&#45;1.07, 5.0)</text>
</g>
<!-- &lt;__main__.BinaryTreeNode object at 0x0000019735283070&gt;&#45;&gt;&lt;__main__.BinaryTreeNode object at 0x0000019735277E80&gt; -->
<g id="edge2" class="edge"><title>&lt;__main__.BinaryTreeNode object at 0x0000019735283070&gt;&#45;&gt;&lt;__main__.BinaryTreeNode object at 0x0000019735277E80&gt;</title>
<path fill="none" stroke="black" d="M615.622,-649.876C625.136,-640.005 635.136,-629.627 644.909,-619.487"/>
<polygon fill="black" stroke="black" points="647.554,-621.785 651.973,-612.156 642.514,-616.928 647.554,-621.785"/>
</g>
<!-- &lt;__main__.BinaryTreeNode object at 0x00000197679BCD60&gt; -->
<g id="node4" class="node"><title>&lt;__main__.BinaryTreeNode object at 0x00000197679BCD60&gt;</title>
<polygon fill="none" stroke="black" points="260.5,-451.5 144.5,-451.5 144.5,-335.5 260.5,-335.5 260.5,-451.5"/>
<text text-anchor="middle" x="202.5" y="-412.3" font-family="Times New Roman,serif" font-size="14.00">L&#45;4</text>
<text text-anchor="middle" x="202.5" y="-397.3" font-family="Times New Roman,serif" font-size="14.00">CD60</text>
<text text-anchor="middle" x="202.5" y="-382.3" font-family="Times New Roman,serif" font-size="14.00">rmse:124.0</text>
<text text-anchor="middle" x="202.5" y="-367.3" font-family="Times New Roman,serif" font-size="14.00">xrange:(&#45;5.0, &#45;2.5)</text>
</g>
<!-- &lt;__main__.BinaryTreeNode object at 0x0000019763CC65E0&gt;&#45;&gt;&lt;__main__.BinaryTreeNode object at 0x00000197679BCD60&gt; -->
<g id="edge3" class="edge"><title>&lt;__main__.BinaryTreeNode object at 0x0000019763CC65E0&gt;&#45;&gt;&lt;__main__.BinaryTreeNode object at 0x00000197679BCD60&gt;</title>
<path fill="none" stroke="black" d="M354.889,-506.3C328.033,-486.597 296.494,-463.459 269.098,-443.359"/>
<polygon fill="black" stroke="black" points="270.871,-440.319 260.738,-437.226 266.73,-445.963 270.871,-440.319"/>
</g>
<!-- &lt;__main__.BinaryTreeNode object at 0x0000019766928DF0&gt; -->
<g id="node5" class="node"><title>&lt;__main__.BinaryTreeNode object at 0x0000019766928DF0&gt;</title>
<polygon fill="none" stroke="black" points="478,-455 355,-455 355,-332 478,-332 478,-455"/>
<text text-anchor="middle" x="416.5" y="-412.3" font-family="Times New Roman,serif" font-size="14.00">R&#45;5</text>
<text text-anchor="middle" x="416.5" y="-397.3" font-family="Times New Roman,serif" font-size="14.00">8DF0</text>
<text text-anchor="middle" x="416.5" y="-382.3" font-family="Times New Roman,serif" font-size="14.00">rmse:196.0</text>
<text text-anchor="middle" x="416.5" y="-367.3" font-family="Times New Roman,serif" font-size="14.00">xrange:(&#45;2.5, &#45;1.07)</text>
</g>
<!-- &lt;__main__.BinaryTreeNode object at 0x0000019763CC65E0&gt;&#45;&gt;&lt;__main__.BinaryTreeNode object at 0x0000019766928DF0&gt; -->
<g id="edge4" class="edge"><title>&lt;__main__.BinaryTreeNode object at 0x0000019763CC65E0&gt;&#45;&gt;&lt;__main__.BinaryTreeNode object at 0x0000019766928DF0&gt;</title>
<path fill="none" stroke="black" d="M416.5,-490.8C416.5,-482.365 416.5,-473.641 416.5,-465.045"/>
<polygon fill="black" stroke="black" points="420,-465.039 416.5,-455.039 413,-465.039 420,-465.039"/>
</g>
<!-- &lt;__main__.BinaryTreeNode object at 0x0000019767AA35E0&gt; -->
<g id="node6" class="node"><title>&lt;__main__.BinaryTreeNode object at 0x0000019767AA35E0&gt;</title>
<polygon fill="none" stroke="black" points="768,-453 649,-453 649,-334 768,-334 768,-453"/>
<text text-anchor="middle" x="708.5" y="-412.3" font-family="Times New Roman,serif" font-size="14.00">L&#45;10</text>
<text text-anchor="middle" x="708.5" y="-397.3" font-family="Times New Roman,serif" font-size="14.00">35E0</text>
<text text-anchor="middle" x="708.5" y="-382.3" font-family="Times New Roman,serif" font-size="14.00">rmse:1056.0</text>
<text text-anchor="middle" x="708.5" y="-367.3" font-family="Times New Roman,serif" font-size="14.00">xrange:(&#45;1.07, 1.0)</text>
</g>
<!-- &lt;__main__.BinaryTreeNode object at 0x0000019735277E80&gt;&#45;&gt;&lt;__main__.BinaryTreeNode object at 0x0000019767AA35E0&gt; -->
<g id="edge5" class="edge"><title>&lt;__main__.BinaryTreeNode object at 0x0000019735277E80&gt;&#45;&gt;&lt;__main__.BinaryTreeNode object at 0x0000019767AA35E0&gt;</title>
<path fill="none" stroke="black" d="M708.5,-492.592C708.5,-483.035 708.5,-473.063 708.5,-463.295"/>
<polygon fill="black" stroke="black" points="712,-463.216 708.5,-453.216 705,-463.216 712,-463.216"/>
</g>
<!-- &lt;__main__.BinaryTreeNode object at 0x0000019767B19040&gt; -->
<g id="node7" class="node"><title>&lt;__main__.BinaryTreeNode object at 0x0000019767B19040&gt;</title>
<polygon fill="none" stroke="black" points="1172,-447 1065,-447 1065,-340 1172,-340 1172,-447"/>
<text text-anchor="middle" x="1118.5" y="-412.3" font-family="Times New Roman,serif" font-size="14.00">R&#45;11</text>
<text text-anchor="middle" x="1118.5" y="-397.3" font-family="Times New Roman,serif" font-size="14.00">9040</text>
<text text-anchor="middle" x="1118.5" y="-382.3" font-family="Times New Roman,serif" font-size="14.00">rmse:575.0</text>
<text text-anchor="middle" x="1118.5" y="-367.3" font-family="Times New Roman,serif" font-size="14.00">xrange:(1.0, 5.0)</text>
</g>
<!-- &lt;__main__.BinaryTreeNode object at 0x0000019735277E80&gt;&#45;&gt;&lt;__main__.BinaryTreeNode object at 0x0000019767B19040&gt; -->
<g id="edge6" class="edge"><title>&lt;__main__.BinaryTreeNode object at 0x0000019735277E80&gt;&#45;&gt;&lt;__main__.BinaryTreeNode object at 0x0000019767B19040&gt;</title>
<path fill="none" stroke="black" d="M768.118,-528.671C844.579,-499.392 976.635,-448.824 1054.95,-418.835"/>
<polygon fill="black" stroke="black" points="1056.61,-421.948 1064.69,-415.104 1054.1,-415.411 1056.61,-421.948"/>
</g>
<!-- &lt;__main__.BinaryTreeNode object at 0x0000019735277EE0&gt; -->
<g id="node8" class="node"><title>&lt;__main__.BinaryTreeNode object at 0x0000019735277EE0&gt;</title>
<polygon fill="none" stroke="black" points="123,-292.5 0,-292.5 0,-169.5 123,-169.5 123,-292.5"/>
<text text-anchor="middle" x="61.5" y="-249.8" font-family="Times New Roman,serif" font-size="14.00">L&#45;6</text>
<text text-anchor="middle" x="61.5" y="-234.8" font-family="Times New Roman,serif" font-size="14.00">7EE0</text>
<text text-anchor="middle" x="61.5" y="-219.8" font-family="Times New Roman,serif" font-size="14.00">rmse:11.0</text>
<text text-anchor="middle" x="61.5" y="-204.8" font-family="Times New Roman,serif" font-size="14.00">xrange:(&#45;5.0, &#45;3.37)</text>
</g>
<!-- &lt;__main__.BinaryTreeNode object at 0x00000197679BCD60&gt;&#45;&gt;&lt;__main__.BinaryTreeNode object at 0x0000019735277EE0&gt; -->
<g id="edge7" class="edge"><title>&lt;__main__.BinaryTreeNode object at 0x00000197679BCD60&gt;&#45;&gt;&lt;__main__.BinaryTreeNode object at 0x0000019735277EE0&gt;</title>
<path fill="none" stroke="black" d="M152.392,-335.462C142.392,-324.079 131.794,-312.015 121.501,-300.299"/>
<polygon fill="black" stroke="black" points="124.02,-297.863 114.79,-292.66 118.761,-302.483 124.02,-297.863"/>
</g>
<!-- &lt;__main__.BinaryTreeNode object at 0x0000019767A47DC0&gt; -->
<g id="node9" class="node"><title>&lt;__main__.BinaryTreeNode object at 0x0000019767A47DC0&gt;</title>
<polygon fill="none" stroke="black" points="264,-292.5 141,-292.5 141,-169.5 264,-169.5 264,-292.5"/>
<text text-anchor="middle" x="202.5" y="-249.8" font-family="Times New Roman,serif" font-size="14.00">R&#45;7</text>
<text text-anchor="middle" x="202.5" y="-234.8" font-family="Times New Roman,serif" font-size="14.00">7DC0</text>
<text text-anchor="middle" x="202.5" y="-219.8" font-family="Times New Roman,serif" font-size="14.00">rmse:12.0</text>
<text text-anchor="middle" x="202.5" y="-204.8" font-family="Times New Roman,serif" font-size="14.00">xrange:(&#45;3.37, &#45;2.5)</text>
</g>
<!-- &lt;__main__.BinaryTreeNode object at 0x00000197679BCD60&gt;&#45;&gt;&lt;__main__.BinaryTreeNode object at 0x0000019767A47DC0&gt; -->
<g id="edge8" class="edge"><title>&lt;__main__.BinaryTreeNode object at 0x00000197679BCD60&gt;&#45;&gt;&lt;__main__.BinaryTreeNode object at 0x0000019767A47DC0&gt;</title>
<path fill="none" stroke="black" d="M202.5,-335.462C202.5,-324.947 202.5,-313.85 202.5,-302.982"/>
<polygon fill="black" stroke="black" points="206,-302.66 202.5,-292.66 199,-302.66 206,-302.66"/>
</g>
<!-- &lt;__main__.BinaryTreeNode object at 0x0000019767A47D90&gt; -->
<g id="node10" class="node"><title>&lt;__main__.BinaryTreeNode object at 0x0000019767A47D90&gt;</title>
<polygon fill="none" stroke="black" points="405,-292.5 282,-292.5 282,-169.5 405,-169.5 405,-292.5"/>
<text text-anchor="middle" x="343.5" y="-249.8" font-family="Times New Roman,serif" font-size="14.00">L&#45;8</text>
<text text-anchor="middle" x="343.5" y="-234.8" font-family="Times New Roman,serif" font-size="14.00">7D90</text>
<text text-anchor="middle" x="343.5" y="-219.8" font-family="Times New Roman,serif" font-size="14.00">rmse:18.0</text>
<text text-anchor="middle" x="343.5" y="-204.8" font-family="Times New Roman,serif" font-size="14.00">xrange:(&#45;2.5, &#45;1.66)</text>
</g>
<!-- &lt;__main__.BinaryTreeNode object at 0x0000019766928DF0&gt;&#45;&gt;&lt;__main__.BinaryTreeNode object at 0x0000019767A47D90&gt; -->
<g id="edge9" class="edge"><title>&lt;__main__.BinaryTreeNode object at 0x0000019766928DF0&gt;&#45;&gt;&lt;__main__.BinaryTreeNode object at 0x0000019767A47D90&gt;</title>
<path fill="none" stroke="black" d="M388.902,-331.822C384.496,-322.135 379.906,-312.042 375.41,-302.158"/>
<polygon fill="black" stroke="black" points="378.463,-300.418 371.137,-292.764 372.091,-303.316 378.463,-300.418"/>
</g>
<!-- &lt;__main__.BinaryTreeNode object at 0x0000019767AC2DC0&gt; -->
<g id="node11" class="node"><title>&lt;__main__.BinaryTreeNode object at 0x0000019767AC2DC0&gt;</title>
<polygon fill="none" stroke="black" points="553.5,-296 423.5,-296 423.5,-166 553.5,-166 553.5,-296"/>
<text text-anchor="middle" x="488.5" y="-249.8" font-family="Times New Roman,serif" font-size="14.00">R&#45;9</text>
<text text-anchor="middle" x="488.5" y="-234.8" font-family="Times New Roman,serif" font-size="14.00">2DC0</text>
<text text-anchor="middle" x="488.5" y="-219.8" font-family="Times New Roman,serif" font-size="14.00">rmse:21.0</text>
<text text-anchor="middle" x="488.5" y="-204.8" font-family="Times New Roman,serif" font-size="14.00">xrange:(&#45;1.66, &#45;1.07)</text>
</g>
<!-- &lt;__main__.BinaryTreeNode object at 0x0000019766928DF0&gt;&#45;&gt;&lt;__main__.BinaryTreeNode object at 0x0000019767AC2DC0&gt; -->
<g id="edge10" class="edge"><title>&lt;__main__.BinaryTreeNode object at 0x0000019766928DF0&gt;&#45;&gt;&lt;__main__.BinaryTreeNode object at 0x0000019767AC2DC0&gt;</title>
<path fill="none" stroke="black" d="M443.72,-331.822C447.592,-323.191 451.608,-314.238 455.574,-305.398"/>
<polygon fill="black" stroke="black" points="458.781,-306.8 459.681,-296.243 452.394,-303.934 458.781,-306.8"/>
</g>
<!-- &lt;__main__.BinaryTreeNode object at 0x0000019767B445E0&gt; -->
<g id="node12" class="node"><title>&lt;__main__.BinaryTreeNode object at 0x0000019767B445E0&gt;</title>
<polygon fill="none" stroke="black" points="701.5,-296 571.5,-296 571.5,-166 701.5,-166 701.5,-296"/>
<text text-anchor="middle" x="636.5" y="-249.8" font-family="Times New Roman,serif" font-size="14.00">L&#45;12</text>
<text text-anchor="middle" x="636.5" y="-234.8" font-family="Times New Roman,serif" font-size="14.00">45E0</text>
<text text-anchor="middle" x="636.5" y="-219.8" font-family="Times New Roman,serif" font-size="14.00">rmse:80.0</text>
<text text-anchor="middle" x="636.5" y="-204.8" font-family="Times New Roman,serif" font-size="14.00">xrange:(&#45;1.07, &#45;0.01)</text>
</g>
<!-- &lt;__main__.BinaryTreeNode object at 0x0000019767AA35E0&gt;&#45;&gt;&lt;__main__.BinaryTreeNode object at 0x0000019767B445E0&gt; -->
<g id="edge11" class="edge"><title>&lt;__main__.BinaryTreeNode object at 0x0000019767AA35E0&gt;&#45;&gt;&lt;__main__.BinaryTreeNode object at 0x0000019767B445E0&gt;</title>
<path fill="none" stroke="black" d="M682.099,-333.647C678.005,-324.522 673.733,-314.998 669.515,-305.597"/>
<polygon fill="black" stroke="black" points="672.611,-303.947 665.325,-296.256 666.225,-306.812 672.611,-303.947"/>
</g>
<!-- &lt;__main__.BinaryTreeNode object at 0x0000019767B35790&gt; -->
<g id="node13" class="node"><title>&lt;__main__.BinaryTreeNode object at 0x0000019767B35790&gt;</title>
<polygon fill="none" stroke="black" points="840,-290.5 721,-290.5 721,-171.5 840,-171.5 840,-290.5"/>
<text text-anchor="middle" x="780.5" y="-249.8" font-family="Times New Roman,serif" font-size="14.00">R&#45;13</text>
<text text-anchor="middle" x="780.5" y="-234.8" font-family="Times New Roman,serif" font-size="14.00">5790</text>
<text text-anchor="middle" x="780.5" y="-219.8" font-family="Times New Roman,serif" font-size="14.00">rmse:84.0</text>
<text text-anchor="middle" x="780.5" y="-204.8" font-family="Times New Roman,serif" font-size="14.00">xrange:(&#45;0.01, 1.0)</text>
</g>
<!-- &lt;__main__.BinaryTreeNode object at 0x0000019767AA35E0&gt;&#45;&gt;&lt;__main__.BinaryTreeNode object at 0x0000019767B35790&gt; -->
<g id="edge12" class="edge"><title>&lt;__main__.BinaryTreeNode object at 0x0000019767AA35E0&gt;&#45;&gt;&lt;__main__.BinaryTreeNode object at 0x0000019767B35790&gt;</title>
<path fill="none" stroke="black" d="M734.901,-333.647C739.824,-322.674 745.005,-311.124 750.038,-299.905"/>
<polygon fill="black" stroke="black" points="753.323,-301.134 754.222,-290.578 746.936,-298.269 753.323,-301.134"/>
</g>
<!-- &lt;__main__.BinaryTreeNode object at 0x0000019767CEB9D0&gt; -->
<g id="node14" class="node"><title>&lt;__main__.BinaryTreeNode object at 0x0000019767CEB9D0&gt;</title>
<polygon fill="none" stroke="black" points="1175.5,-288 1061.5,-288 1061.5,-174 1175.5,-174 1175.5,-288"/>
<text text-anchor="middle" x="1118.5" y="-249.8" font-family="Times New Roman,serif" font-size="14.00">L&#45;18</text>
<text text-anchor="middle" x="1118.5" y="-234.8" font-family="Times New Roman,serif" font-size="14.00">B9D0</text>
<text text-anchor="middle" x="1118.5" y="-219.8" font-family="Times New Roman,serif" font-size="14.00">rmse:179.0</text>
<text text-anchor="middle" x="1118.5" y="-204.8" font-family="Times New Roman,serif" font-size="14.00">xrange:(1.0, 2.31)</text>
</g>
<!-- &lt;__main__.BinaryTreeNode object at 0x0000019767B19040&gt;&#45;&gt;&lt;__main__.BinaryTreeNode object at 0x0000019767CEB9D0&gt; -->
<g id="edge13" class="edge"><title>&lt;__main__.BinaryTreeNode object at 0x0000019767B19040&gt;&#45;&gt;&lt;__main__.BinaryTreeNode object at 0x0000019767CEB9D0&gt;</title>
<path fill="none" stroke="black" d="M1118.5,-339.946C1118.5,-326.76 1118.5,-312.436 1118.5,-298.663"/>
<polygon fill="black" stroke="black" points="1122,-298.265 1118.5,-288.265 1115,-298.265 1122,-298.265"/>
</g>
<!-- &lt;__main__.BinaryTreeNode object at 0x0000019767C18E80&gt; -->
<g id="node15" class="node"><title>&lt;__main__.BinaryTreeNode object at 0x0000019767C18E80&gt;</title>
<polygon fill="none" stroke="black" points="1382.5,-288 1268.5,-288 1268.5,-174 1382.5,-174 1382.5,-288"/>
<text text-anchor="middle" x="1325.5" y="-249.8" font-family="Times New Roman,serif" font-size="14.00">R&#45;19</text>
<text text-anchor="middle" x="1325.5" y="-234.8" font-family="Times New Roman,serif" font-size="14.00">8E80</text>
<text text-anchor="middle" x="1325.5" y="-219.8" font-family="Times New Roman,serif" font-size="14.00">rmse:175.0</text>
<text text-anchor="middle" x="1325.5" y="-204.8" font-family="Times New Roman,serif" font-size="14.00">xrange:(2.32, 5.0)</text>
</g>
<!-- &lt;__main__.BinaryTreeNode object at 0x0000019767B19040&gt;&#45;&gt;&lt;__main__.BinaryTreeNode object at 0x0000019767C18E80&gt; -->
<g id="edge14" class="edge"><title>&lt;__main__.BinaryTreeNode object at 0x0000019767B19040&gt;&#45;&gt;&lt;__main__.BinaryTreeNode object at 0x0000019767C18E80&gt;</title>
<path fill="none" stroke="black" d="M1172.08,-350.959C1198.9,-330.162 1231.6,-304.806 1259.91,-282.854"/>
<polygon fill="black" stroke="black" points="1262.4,-285.354 1268.16,-276.461 1258.11,-279.823 1262.4,-285.354"/>
</g>
<!-- &lt;__main__.BinaryTreeNode object at 0x0000019767B9F670&gt; -->
<g id="node16" class="node"><title>&lt;__main__.BinaryTreeNode object at 0x0000019767B9F670&gt;</title>
<polygon fill="none" stroke="black" points="551.5,-130 421.5,-130 421.5,-0 551.5,-0 551.5,-130"/>
<text text-anchor="middle" x="486.5" y="-83.8" font-family="Times New Roman,serif" font-size="14.00">L&#45;14</text>
<text text-anchor="middle" x="486.5" y="-68.8" font-family="Times New Roman,serif" font-size="14.00">F670</text>
<text text-anchor="middle" x="486.5" y="-53.8" font-family="Times New Roman,serif" font-size="14.00">rmse:6.0</text>
<text text-anchor="middle" x="486.5" y="-38.8" font-family="Times New Roman,serif" font-size="14.00">xrange:(&#45;1.07, &#45;0.38)</text>
</g>
<!-- &lt;__main__.BinaryTreeNode object at 0x0000019767B445E0&gt;&#45;&gt;&lt;__main__.BinaryTreeNode object at 0x0000019767B9F670&gt; -->
<g id="edge15" class="edge"><title>&lt;__main__.BinaryTreeNode object at 0x0000019767B445E0&gt;&#45;&gt;&lt;__main__.BinaryTreeNode object at 0x0000019767B9F670&gt;</title>
<path fill="none" stroke="black" d="M577.647,-165.654C569.227,-156.448 560.523,-146.932 551.986,-137.598"/>
<polygon fill="black" stroke="black" points="554.516,-135.178 545.184,-130.161 549.35,-139.902 554.516,-135.178"/>
</g>
<!-- &lt;__main__.BinaryTreeNode object at 0x0000019767C12AC0&gt; -->
<g id="node17" class="node"><title>&lt;__main__.BinaryTreeNode object at 0x0000019767C12AC0&gt;</title>
<polygon fill="none" stroke="black" points="699.5,-130 569.5,-130 569.5,-0 699.5,-0 699.5,-130"/>
<text text-anchor="middle" x="634.5" y="-83.8" font-family="Times New Roman,serif" font-size="14.00">R&#45;15</text>
<text text-anchor="middle" x="634.5" y="-68.8" font-family="Times New Roman,serif" font-size="14.00">2AC0</text>
<text text-anchor="middle" x="634.5" y="-53.8" font-family="Times New Roman,serif" font-size="14.00">rmse:7.0</text>
<text text-anchor="middle" x="634.5" y="-38.8" font-family="Times New Roman,serif" font-size="14.00">xrange:(&#45;0.38, &#45;0.01)</text>
</g>
<!-- &lt;__main__.BinaryTreeNode object at 0x0000019767B445E0&gt;&#45;&gt;&lt;__main__.BinaryTreeNode object at 0x0000019767C12AC0&gt; -->
<g id="edge16" class="edge"><title>&lt;__main__.BinaryTreeNode object at 0x0000019767B445E0&gt;&#45;&gt;&lt;__main__.BinaryTreeNode object at 0x0000019767C12AC0&gt;</title>
<path fill="none" stroke="black" d="M635.715,-165.654C635.614,-157.36 635.51,-148.813 635.407,-140.375"/>
<polygon fill="black" stroke="black" points="638.904,-140.117 635.282,-130.161 631.905,-140.203 638.904,-140.117"/>
</g>
<!-- &lt;__main__.BinaryTreeNode object at 0x0000019767C214C0&gt; -->
<g id="node18" class="node"><title>&lt;__main__.BinaryTreeNode object at 0x0000019767C214C0&gt;</title>
<polygon fill="none" stroke="black" points="843,-127.5 718,-127.5 718,-2.5 843,-2.5 843,-127.5"/>
<text text-anchor="middle" x="780.5" y="-83.8" font-family="Times New Roman,serif" font-size="14.00">L&#45;16</text>
<text text-anchor="middle" x="780.5" y="-68.8" font-family="Times New Roman,serif" font-size="14.00">14C0</text>
<text text-anchor="middle" x="780.5" y="-53.8" font-family="Times New Roman,serif" font-size="14.00">rmse:9.0</text>
<text text-anchor="middle" x="780.5" y="-38.8" font-family="Times New Roman,serif" font-size="14.00">xrange:(&#45;0.01, 0.37)</text>
</g>
<!-- &lt;__main__.BinaryTreeNode object at 0x0000019767B35790&gt;&#45;&gt;&lt;__main__.BinaryTreeNode object at 0x0000019767C214C0&gt; -->
<g id="edge17" class="edge"><title>&lt;__main__.BinaryTreeNode object at 0x0000019767B35790&gt;&#45;&gt;&lt;__main__.BinaryTreeNode object at 0x0000019767C214C0&gt;</title>
<path fill="none" stroke="black" d="M780.5,-171.255C780.5,-160.419 780.5,-148.991 780.5,-137.82"/>
<polygon fill="black" stroke="black" points="784,-137.656 780.5,-127.656 777,-137.656 784,-137.656"/>
</g>
<!-- &lt;__main__.BinaryTreeNode object at 0x0000019767C7EA90&gt; -->
<g id="node19" class="node"><title>&lt;__main__.BinaryTreeNode object at 0x0000019767C7EA90&gt;</title>
<polygon fill="none" stroke="black" points="975.5,-122 861.5,-122 861.5,-8 975.5,-8 975.5,-122"/>
<text text-anchor="middle" x="918.5" y="-83.8" font-family="Times New Roman,serif" font-size="14.00">R&#45;17</text>
<text text-anchor="middle" x="918.5" y="-68.8" font-family="Times New Roman,serif" font-size="14.00">EA90</text>
<text text-anchor="middle" x="918.5" y="-53.8" font-family="Times New Roman,serif" font-size="14.00">rmse:6.0</text>
<text text-anchor="middle" x="918.5" y="-38.8" font-family="Times New Roman,serif" font-size="14.00">xrange:(0.37, 1.0)</text>
</g>
<!-- &lt;__main__.BinaryTreeNode object at 0x0000019767B35790&gt;&#45;&gt;&lt;__main__.BinaryTreeNode object at 0x0000019767C7EA90&gt; -->
<g id="edge18" class="edge"><title>&lt;__main__.BinaryTreeNode object at 0x0000019767B35790&gt;&#45;&gt;&lt;__main__.BinaryTreeNode object at 0x0000019767C7EA90&gt;</title>
<path fill="none" stroke="black" d="M829.931,-171.255C841.181,-157.887 853.186,-143.619 864.611,-130.042"/>
<polygon fill="black" stroke="black" points="867.5,-132.045 871.26,-122.14 862.144,-127.538 867.5,-132.045"/>
</g>
<!-- &lt;__main__.BinaryTreeNode object at 0x0000019767CEB9A0&gt; -->
<g id="node20" class="node"><title>&lt;__main__.BinaryTreeNode object at 0x0000019767CEB9A0&gt;</title>
<polygon fill="none" stroke="black" points="1107.5,-122 993.5,-122 993.5,-8 1107.5,-8 1107.5,-122"/>
<text text-anchor="middle" x="1050.5" y="-83.8" font-family="Times New Roman,serif" font-size="14.00">L&#45;20</text>
<text text-anchor="middle" x="1050.5" y="-68.8" font-family="Times New Roman,serif" font-size="14.00">B9A0</text>
<text text-anchor="middle" x="1050.5" y="-53.8" font-family="Times New Roman,serif" font-size="14.00">rmse:20.0</text>
<text text-anchor="middle" x="1050.5" y="-38.8" font-family="Times New Roman,serif" font-size="14.00">xrange:(1.0, 1.58)</text>
</g>
<!-- &lt;__main__.BinaryTreeNode object at 0x0000019767CEB9D0&gt;&#45;&gt;&lt;__main__.BinaryTreeNode object at 0x0000019767CEB9A0&gt; -->
<g id="edge19" class="edge"><title>&lt;__main__.BinaryTreeNode object at 0x0000019767CEB9D0&gt;&#45;&gt;&lt;__main__.BinaryTreeNode object at 0x0000019767CEB9A0&gt;</title>
<path fill="none" stroke="black" d="M1095.1,-173.561C1089.51,-160.085 1083.5,-145.586 1077.76,-131.733"/>
<polygon fill="black" stroke="black" points="1080.89,-130.162 1073.83,-122.266 1074.43,-132.844 1080.89,-130.162"/>
</g>
<!-- &lt;__main__.BinaryTreeNode object at 0x0000019767D68D00&gt; -->
<g id="node21" class="node"><title>&lt;__main__.BinaryTreeNode object at 0x0000019767D68D00&gt;</title>
<polygon fill="none" stroke="black" points="1247,-125.5 1126,-125.5 1126,-4.5 1247,-4.5 1247,-125.5"/>
<text text-anchor="middle" x="1186.5" y="-83.8" font-family="Times New Roman,serif" font-size="14.00">R&#45;21</text>
<text text-anchor="middle" x="1186.5" y="-68.8" font-family="Times New Roman,serif" font-size="14.00">8D00</text>
<text text-anchor="middle" x="1186.5" y="-53.8" font-family="Times New Roman,serif" font-size="14.00">rmse:19.0</text>
<text text-anchor="middle" x="1186.5" y="-38.8" font-family="Times New Roman,serif" font-size="14.00">xrange:(1.58, 2.31)</text>
</g>
<!-- &lt;__main__.BinaryTreeNode object at 0x0000019767CEB9D0&gt;&#45;&gt;&lt;__main__.BinaryTreeNode object at 0x0000019767D68D00&gt; -->
<g id="edge20" class="edge"><title>&lt;__main__.BinaryTreeNode object at 0x0000019767CEB9D0&gt;&#45;&gt;&lt;__main__.BinaryTreeNode object at 0x0000019767D68D00&gt;</title>
<path fill="none" stroke="black" d="M1141.9,-173.561C1147.06,-161.109 1152.59,-147.784 1157.93,-134.902"/>
<polygon fill="black" stroke="black" points="1161.18,-136.197 1161.78,-125.619 1154.72,-133.516 1161.18,-136.197"/>
</g>
<!-- &lt;__main__.BinaryTreeNode object at 0x0000019767DCCCA0&gt; -->
<g id="node22" class="node"><title>&lt;__main__.BinaryTreeNode object at 0x0000019767DCCCA0&gt;</title>
<polygon fill="none" stroke="black" points="1386,-125.5 1265,-125.5 1265,-4.5 1386,-4.5 1386,-125.5"/>
<text text-anchor="middle" x="1325.5" y="-83.8" font-family="Times New Roman,serif" font-size="14.00">L&#45;22</text>
<text text-anchor="middle" x="1325.5" y="-68.8" font-family="Times New Roman,serif" font-size="14.00">CCA0</text>
<text text-anchor="middle" x="1325.5" y="-53.8" font-family="Times New Roman,serif" font-size="14.00">rmse:16.0</text>
<text text-anchor="middle" x="1325.5" y="-38.8" font-family="Times New Roman,serif" font-size="14.00">xrange:(2.32, 3.28)</text>
</g>
<!-- &lt;__main__.BinaryTreeNode object at 0x0000019767C18E80&gt;&#45;&gt;&lt;__main__.BinaryTreeNode object at 0x0000019767DCCCA0&gt; -->
<g id="edge21" class="edge"><title>&lt;__main__.BinaryTreeNode object at 0x0000019767C18E80&gt;&#45;&gt;&lt;__main__.BinaryTreeNode object at 0x0000019767DCCCA0&gt;</title>
<path fill="none" stroke="black" d="M1325.5,-173.561C1325.5,-161.351 1325.5,-148.302 1325.5,-135.653"/>
<polygon fill="black" stroke="black" points="1329,-135.619 1325.5,-125.619 1322,-135.619 1329,-135.619"/>
</g>
<!-- &lt;__main__.BinaryTreeNode object at 0x0000019767D5A280&gt; -->
<g id="node23" class="node"><title>&lt;__main__.BinaryTreeNode object at 0x0000019767D5A280&gt;</title>
<polygon fill="none" stroke="black" points="1518.5,-122 1404.5,-122 1404.5,-8 1518.5,-8 1518.5,-122"/>
<text text-anchor="middle" x="1461.5" y="-83.8" font-family="Times New Roman,serif" font-size="14.00">R&#45;23</text>
<text text-anchor="middle" x="1461.5" y="-68.8" font-family="Times New Roman,serif" font-size="14.00">A280</text>
<text text-anchor="middle" x="1461.5" y="-53.8" font-family="Times New Roman,serif" font-size="14.00">rmse:15.0</text>
<text text-anchor="middle" x="1461.5" y="-38.8" font-family="Times New Roman,serif" font-size="14.00">xrange:(3.28, 5.0)</text>
</g>
<!-- &lt;__main__.BinaryTreeNode object at 0x0000019767C18E80&gt;&#45;&gt;&lt;__main__.BinaryTreeNode object at 0x0000019767D5A280&gt; -->
<g id="edge22" class="edge"><title>&lt;__main__.BinaryTreeNode object at 0x0000019767C18E80&gt;&#45;&gt;&lt;__main__.BinaryTreeNode object at 0x0000019767D5A280&gt;</title>
<path fill="none" stroke="black" d="M1372.3,-173.561C1383.91,-159.567 1396.43,-144.469 1408.31,-130.137"/>
<polygon fill="black" stroke="black" points="1411.15,-132.197 1414.84,-122.266 1405.76,-127.729 1411.15,-132.197"/>
</g>
</g>
</svg>
